:SAMPLES-PER-SECOND 30
:FULLY-SPECIFIED
:DEGREES
336
root  -61.8169 32.69 0.450977 9.13736 83.325 5.04034
RightUpLeg  -32.1045 -18.3089 -6.3299
RightLeg  33.4549 10.2941 5.82609
RightFoot  7.08216 -0.062434 1.48054
RightToes  -37.6456 -0.199954 -0.30144
Spine  0.524889 -1.98485 1.03122
Spine1  1.15745 -3.984 2.57562
HEad  -82.8759 -6.46229 24.6408
LeftShoulder1  -1.94126e-019 -3.10601e-018 -2.51263e-017
LeftArm  3.28804 -8.37751 -73.0279
LeftForeArm  29.5771 -52.977 -12.5441
LeftHand  -0.491043 -0.74975 9.40844
RightShoulder  -4.96962e-017 0 -2.36833e-017
RightArm  -33.1168 -24.5768 40.3843
RightForeArm  55.8344 10.1746 1.54467
RightHand  -0.192277 -3.85279 -13.6355
LeftUpLeg  -3.96361 11.567 2.60406
LeftLeg  31.5993 6.72451 3.54554
LeftFoot  -16.7431 -0.331954 -2.09392
LeftToes  -34.4079 1.83942e-006 5.51297e-008
337
root  -62.5394 32.6022 -0.14539 15.1409 81.2221 10.0201
RightUpLeg  -33.7493 -14.0818 -7.80686
RightLeg  30.8844 8.38023 4.27472
RightFoot  9.47503 -0.0843238 1.5051
RightToes  -37.1026 -0.195761 -0.298177
Spine  0.163514 -2.27899 0.765909
Spine1  0.50472 -4.67705 1.93948
HEad  -79.4569 -6.62461 22.6272
LeftShoulder1  -1.94126e-019 -3.10601e-018 -2.51263e-017
LeftArm  1.86356 -8.98807 -71.662
LeftForeArm  33.1588 -55.6397 -13.6861
LeftHand  -0.557549 -1.73406 9.26408
RightShoulder  -4.96962e-017 0 -2.36833e-017
RightArm  -46.7802 -24.7317 43.3048
RightForeArm  65.0469 9.02579 1.47859
RightHand  -0.140512 -4.48877 -16.6031
LeftUpLeg  -7.55557 16.5592 0.957913
LeftLeg  34.4461 4.41077 2.61583
LeftFoot  -16.6396 -0.229067 -1.40479
LeftToes  -35.5033 1.83942e-006 5.51297e-008
338
root  -62.9076 32.7284 -0.708693 9.52304 77.927 4.04901
RightUpLeg  -33.0145 -8.00405 -8.35458
RightLeg  25.9601 6.35144 2.58955
RightFoot  12.4447 -0.0965017 1.38781
RightToes  -36.7215 -0.192837 -0.296059
Spine  0.0643184 -2.17618 1.67887
Spine1  0.304026 -4.57997 3.69306
HEad  -74.5462 -6.78219 15.5622
LeftShoulder1  -1.94126e-019 -3.10601e-018 -2.51263e-017
LeftArm  -1.40817 -6.71081 -73.4901
LeftForeArm  35.4893 -57.3281 -14.5015
LeftHand  -0.572785 -2.10486 9.06802
RightShoulder  -4.96962e-017 0 -2.36833e-017
RightArm  -53.6836 -25.0569 45.1916
RightForeArm  62.0886 9.5212 1.52599
RightHand  0.207276 -6.68434 -19.6335
LeftUpLeg  -7.57131 16.5467 -0.344257
LeftLeg  33.1187 7.40342 4.15387
LeftFoot  -17.2927 -0.405399 -2.50398
LeftToes  -30.9195 1.83942e-006 5.51297e-008
339
root  -63.0436 32.9939 -1.13274 5.1488 74.5822 -0.0610046
RightUpLeg  -30.3736 -3.17271 -8.41
RightLeg  19.6117 5.19508 1.47883
RightFoot  12.0951 -0.0557558 1.03729
RightToes  -36.333 -0.189872 -0.293485
Spine  0.0667581 -2.03439 2.72769
Spine1  0.242955 -4.40798 5.81334
HEad  -68.4332 -6.82817 7.27493
LeftShoulder1  -1.94126e-019 -3.10601e-018 -2.51263e-017
LeftArm  -4.51347 -2.74686 -76.9357
LeftForeArm  34.463 -57.1783 -14.5077
LeftHand  -0.578405 -1.34043 10.1343
RightShoulder  -4.96962e-017 0 -2.36833e-017
RightArm  -55.7195 -26.0953 47.3057
RightForeArm  52.4629 10.0821 1.57111
RightHand  0.534749 -8.37013 -21.1676
LeftUpLeg  -6.71039 12.2584 -2.02963
LeftLeg  31.889 14.5086 7.64835
LeftFoot  -16.9614 -0.753125 -4.88616
LeftToes  -22.3374 1.83942e-006 5.51297e-008
340
root  -63.14 33.2855 -1.33474 1.32428 71.3165 -4.67084
RightUpLeg  -27.9206 -0.145187 -7.08119
RightLeg  12.4902 4.3936 0.680891
RightFoot  9.91269 -0.0148483 0.687538
RightToes  -35.5129 -0.183667 -0.288398
Spine  -0.453077 -2.05674 4.01866
Spine1  -0.887701 -4.53145 8.44209
HEad  -62.4585 -5.49184 -0.552468
LeftShoulder1  -1.94126e-019 -3.10601e-018 -2.51263e-017
LeftArm  -6.41636 2.46919 -80.6325
LeftForeArm  30.7501 -55.7078 -13.973
LeftHand  -0.514597 0.273163 11.7278
RightShoulder  -4.96962e-017 0 -2.36833e-017
RightArm  -54.2224 -27.4373 48.8884
RightForeArm  45.131 9.77476 1.57532
RightHand  0.439587 -8.25583 -18.4056
LeftUpLeg  -6.49023 10.986 -2.04802
LeftLeg  30.3672 18.7393 9.16839
LeftFoot  -16.1362 -0.878567 -6.03037
LeftToes  -18.0375 1.83942e-006 5.51297e-008
341
root  -63.1909 33.5084 -1.41705 -0.104248 68.167 -6.99527
RightUpLeg  -26.1512 -0.844675 -4.9873
RightLeg  7.27532 4.11879 0.259664
RightFoot  6.47156 0.006016 0.41176
RightToes  -32.4084 -0.160852 -0.268352
Spine  -1.07555 -2.20986 4.87603
Spine1  -2.2872 -4.93778 10.2771
HEad  -58.034 -3.49682 -5.4137
LeftShoulder1  -1.94126e-019 -3.10601e-018 -2.51263e-017
LeftArm  -4.87625 7.42783 -82.6105
LeftForeArm  26.2646 -52.9967 -12.879
LeftHand  -0.421946 1.05668 11.2804
RightShoulder  -4.96962e-017 0 -2.36833e-017
RightArm  -53.7745 -28.745 51.3846
RightForeArm  44.8978 8.35118 1.435
RightHand  0.169222 -6.82274 -15.1924
LeftUpLeg  -6.04229 13.0972 -1.45347
LeftLeg  28.1089 19.7878 8.73744
LeftFoot  -15.2131 -0.811943 -5.91275
LeftToes  -17.1593 1.83942e-006 5.51297e-008
342
root  -63.2448 33.6081 -1.48667 0.31662 66.3863 -7.24612
RightUpLeg  -26.262 -8.4254 -1.95661
RightLeg  6.72823 7.21341 0.384615
RightFoot  3.43635 0.011531 0.369654
RightToes  -34.3381 -0.174906 -0.280958
Spine  -1.51571 -2.97339 5.09674
Spine1  -3.34463 -6.52626 10.9403
HEad  -55.7866 -1.26009 -6.88604
LeftShoulder1  -1.94126e-019 -3.10601e-018 -2.51263e-017
LeftArm  -2.07828 11.3496 -82.698
LeftForeArm  29.3564 -49.8316 -11.1164
LeftHand  -0.399154 -1.13278 7.24816
RightShoulder  -4.96962e-017 0 -2.36833e-017
RightArm  -51.1472 -30.149 55.5335
RightForeArm  51.934 7.6114 1.3157
RightHand  -0.0167553 -5.40658 -11.6313
LeftUpLeg  -5.80985 14.8552 -1.43303
LeftLeg  26.2407 19.8637 8.03071
LeftFoot  -14.582 -0.735423 -5.58173
LeftToes  -17.5184 1.83942e-006 5.51297e-008
